<svg width="42" height="43" viewBox="0 0 42 43" fill="none" xmlns="http://www.w3.org/2000/svg">
<path d="M1 34.1033L11.0614 26.3268C11.0614 26.3268 15.5642 23.19 19.7704 26.9444L28.9875 29.1335C29.516 29.2588 29.975 29.5851 30.2669 30.0432C30.5589 30.5013 30.6609 31.0551 30.5513 31.5872V31.5872C30.4399 32.129 30.1183 32.6045 29.6569 32.9096C29.1956 33.2147 28.6321 33.3245 28.0899 33.2149L18.7937 31.3377L28.1143 33.2271C28.3771 33.2813 28.6485 33.2796 28.9106 33.2219C29.1727 33.1643 29.4197 33.052 29.6355 32.8924L37.917 26.7892C38.2901 26.5071 38.7526 26.3694 39.2192 26.4016C39.6859 26.4337 40.1251 26.6336 40.456 26.9642V26.9642C40.6493 27.1576 40.7995 27.3898 40.8967 27.6454C40.9938 27.901 41.0359 28.1742 41.0199 28.4472C41.004 28.7202 40.9304 28.9868 40.8041 29.2293C40.6778 29.4719 40.5016 29.6849 40.2871 29.8545L29.9687 38.0022C29.2527 38.5681 28.3667 38.8757 27.4541 38.8754H10.7206L6.98753 42" stroke="#1A2578" stroke-width="1.5" stroke-linecap="round" stroke-linejoin="round"/>
<path d="M28.3195 4.92322C29.6247 4.92322 34.8805 6.03675 34.8805 11.5466C34.8805 11.5466 34.6249 15.2736 32.2366 16.9622C32.2366 16.9622 31.0592 17.63 31.0592 21.1653V24.3188H25.1706V21.0345C25.1706 21.0345 25.5935 18.4043 23.7056 16.7979C22.2087 15.5246 21.2823 13.7737 21.4131 11.0963C21.5364 8.48592 23.9247 4.92322 28.3195 4.92322Z" stroke="#BF0830" stroke-width="1.5" stroke-linecap="round" stroke-linejoin="round"/>
<path d="M25.1665 22.0523H31.0597" stroke="#BF0830" stroke-width="1.5" stroke-linecap="round" stroke-linejoin="round"/>
<path d="M31.1769 19.3992H25.1665" stroke="#BF0830" stroke-width="1.5" stroke-linecap="round" stroke-linejoin="round"/>
<path d="M28.7015 8.32623L26.8867 11.7018H29.4986L27.6184 14.8873" stroke="#BF0830" stroke-width="1.5" stroke-linecap="round" stroke-linejoin="round"/>
<path d="M34.1475 5.58654L35.6763 4.08966" stroke="#BF0830" stroke-width="1.5" stroke-linecap="round" stroke-linejoin="round"/>
<path d="M36.6636 11.7338H38.8617" stroke="#BF0830" stroke-width="1.5" stroke-linecap="round" stroke-linejoin="round"/>
<path d="M34.1475 17.8171L35.6763 19.2181" stroke="#BF0830" stroke-width="1.5" stroke-linecap="round" stroke-linejoin="round"/>
<path d="M22.0766 17.8171L20.4854 19.2181" stroke="#BF0830" stroke-width="1.5" stroke-linecap="round" stroke-linejoin="round"/>
<path d="M19.5604 11.7338H17.3638" stroke="#BF0830" stroke-width="1.5" stroke-linecap="round" stroke-linejoin="round"/>
<path d="M22.0766 5.71433L20.4854 4.08966" stroke="#BF0830" stroke-width="1.5" stroke-linecap="round" stroke-linejoin="round"/>
<path d="M28.1123 3.13427L28.1716 1" stroke="#BF0830" stroke-width="1.5" stroke-linecap="round" stroke-linejoin="round"/>
</svg>
