<svg width="42" height="40" viewBox="0 0 42 40" fill="none" xmlns="http://www.w3.org/2000/svg">
<path d="M6.25721 38.3564C9.16069 38.3564 11.5144 36.0027 11.5144 33.0992C11.5144 30.1957 9.16069 27.842 6.25721 27.842C3.35373 27.842 1 30.1957 1 33.0992C1 36.0027 3.35373 38.3564 6.25721 38.3564Z" stroke="#1A2578" stroke-width="1.5" stroke-linecap="round" stroke-linejoin="round"/>
<path d="M35.9802 38.8313C38.7525 38.8313 40.9999 36.5839 40.9999 33.8116C40.9999 31.0393 38.7525 28.7919 35.9802 28.7919C33.2079 28.7919 30.9604 31.0393 30.9604 33.8116C30.9604 36.5839 33.2079 38.8313 35.9802 38.8313Z" stroke="#1A2578" stroke-width="1.5" stroke-linecap="round" stroke-linejoin="round"/>
<path d="M34.0042 9.10828C35.9904 9.10828 37.6006 7.4981 37.6006 5.51184C37.6006 3.52558 35.9904 1.91541 34.0042 1.91541C32.0179 1.91541 30.4077 3.52558 30.4077 5.51184C30.4077 7.4981 32.0179 9.10828 34.0042 9.10828Z" stroke="#1A2578" stroke-width="1.5" stroke-linecap="round" stroke-linejoin="round"/>
<path d="M6.92911 8.23805C8.84979 8.23805 10.4068 6.68103 10.4068 4.76035C10.4068 2.83967 8.84979 1.28265 6.92911 1.28265C5.00843 1.28265 3.45142 2.83967 3.45142 4.76035C3.45142 6.68103 5.00843 8.23805 6.92911 8.23805Z" stroke="#1A2578" stroke-width="1.5" stroke-linecap="round" stroke-linejoin="round"/>
<path d="M20.921 28.3968C26.3785 28.3968 30.8027 23.9726 30.8027 18.5151C30.8027 13.0576 26.3785 8.63342 20.921 8.63342C15.4635 8.63342 11.0393 13.0576 11.0393 18.5151C11.0393 23.9726 15.4635 28.3968 20.921 28.3968Z" stroke="#BF0830" stroke-width="1.5" stroke-linecap="round" stroke-linejoin="round"/>
<path d="M20.6838 24.6815C23.8712 24.6815 26.455 22.0977 26.455 18.9103C26.455 15.723 23.8712 13.1391 20.6838 13.1391C17.4965 13.1391 14.9126 15.723 14.9126 18.9103C14.9126 22.0977 17.4965 24.6815 20.6838 24.6815Z" stroke="#BF0830" stroke-width="1.5" stroke-linecap="round" stroke-linejoin="round"/>
<path d="M9.10205 7.47516L16.643 14.7917" stroke="#1A2578" stroke-width="1.5" stroke-linecap="round" stroke-linejoin="round"/>
<path d="M31.3835 7.97449L24.9666 15.0437" stroke="#1A2578" stroke-width="1.5" stroke-linecap="round" stroke-linejoin="round"/>
<path d="M32.2765 30.4218L24.9666 22.7767" stroke="#1A2578" stroke-width="1.5" stroke-linecap="round" stroke-linejoin="round"/>
<path d="M10.21 29.6362L16.6432 23.0289" stroke="#1A2578" stroke-width="1.5" stroke-linecap="round" stroke-linejoin="round"/>
</svg>
