<svg width="39" height="42" viewBox="0 0 39 42" fill="none" xmlns="http://www.w3.org/2000/svg">
<path d="M20.0255 18.1204V36.4275C20.0257 36.9513 19.9228 37.4701 19.7225 37.9541C19.5221 38.4381 19.2284 38.8779 18.8581 39.2484C18.4877 39.6189 18.0481 39.9128 17.5641 40.1133C17.0802 40.3138 16.5615 40.417 16.0377 40.417V40.417C15.5138 40.417 14.9951 40.3138 14.5112 40.1133C14.0273 39.9128 13.5876 39.6189 13.2173 39.2484C12.8469 38.8779 12.5532 38.4381 12.3529 37.9541C12.1526 37.4701 12.0496 36.9513 12.0498 36.4275V34.0057" stroke="#BF0830" stroke-width="1.5" stroke-linecap="round" stroke-linejoin="round"/>
<path d="M1 20.8312C1 20.8312 3.81086 3.99493 20.0255 3.99493C36.2402 3.99493 38 20.8312 38 20.8312C38 20.8312 32.1264 15.2514 25.6667 20.8312C25.6667 20.8312 18.6193 14.1745 13.1364 20.8312C13.1364 20.8312 6.67666 14.6637 1 20.8312Z" stroke="#1A2578" stroke-width="1.5" stroke-linecap="round" stroke-linejoin="round"/>
<path d="M20.0254 3.99494V1" stroke="#BF0830" stroke-width="1.5" stroke-linecap="round" stroke-linejoin="round"/>
</svg>
